HIERARCHY
ROOT root
{
	OFFSET	0	13.1	24.9
	CHANNELS 6  Xposition Yposition Zposition Xrotation Yrotation Zrotation
	JOINT spine_1
	{
		OFFSET	0	9.99999	0
		CHANNELS 3  Xrotation Yrotation Zrotation
		JOINT spine_2
		{
			OFFSET	0	112	-10
			CHANNELS 3  Xrotation Yrotation Zrotation
			JOINT spine_3
			{
				OFFSET	0	206.5	19.3
				CHANNELS 3  Xrotation Yrotation Zrotation
				JOINT spine_4
				{
					OFFSET	0	110.4	14.6
					CHANNELS 3  Xrotation Yrotation Zrotation
					JOINT neck_1
					{
						OFFSET	0	71.8	-50.3
						CHANNELS 3  Xrotation Yrotation Zrotation
						JOINT neck_2
						{
							OFFSET	0	86.2	-25.8
							CHANNELS 3  Xrotation Yrotation Zrotation
							JOINT head_ee
							{
								OFFSET	0	179.8	-8.7
								CHANNELS 3  Xrotation Yrotation Zrotation
								End Site
								{
									OFFSET	1	0	0
								}
							}
						}
					}
					JOINT left_clavicle
					{
						OFFSET	-43.2	22.4	-70.8
						CHANNELS 3  Xrotation Yrotation Zrotation
						JOINT left_shoulder
						{
							OFFSET	-93.9	-5.79999	48.7
							CHANNELS 3  Xrotation Yrotation Zrotation
							JOINT left_elbow
							{
								OFFSET	-291.4	-30.8	15.2
								CHANNELS 3  Xrotation Yrotation Zrotation
								JOINT left_lowarm_twist
								{
									OFFSET	-110.7	-3.89999	13.6
									CHANNELS 3  Xrotation Yrotation Zrotation
									JOINT left_hand
									{
										OFFSET	-110.7	-3.89999	13.6
										CHANNELS 3  Xrotation Yrotation Zrotation
										JOINT left_ee
										{
											OFFSET	-80.8	-5.10001	12.1
											CHANNELS 3  Xrotation Yrotation Zrotation
											End Site
											{
												OFFSET	1	0	0
											}
										}
									}
								}
							}
						}
					}
					JOINT right_clavicle
					{
						OFFSET	43.2	22.4	-70.8
						CHANNELS 3  Xrotation Yrotation Zrotation
						JOINT right_shoulder
						{
							OFFSET	93.9	-5.79999	48.7
							CHANNELS 3  Xrotation Yrotation Zrotation
							JOINT right_elbow
							{
								OFFSET	291.4	-30.8	15.2
								CHANNELS 3  Xrotation Yrotation Zrotation
								JOINT right_lowarm_twist
								{
									OFFSET	110.7	-3.89999	13.6
									CHANNELS 3  Xrotation Yrotation Zrotation
									JOINT right_hand
									{
										OFFSET	110.7	-3.89999	13.6
										CHANNELS 3  Xrotation Yrotation Zrotation
										JOINT right_ee
										{
											OFFSET	80.8	-5.10001	12.1
											CHANNELS 3  Xrotation Yrotation Zrotation
											End Site
											{
												OFFSET	1	0	0
											}
										}
									}
								}
							}
						}
					}
				}
			}
		}
	}
	JOINT left_hip
	{
		OFFSET	-82.8	-127.5	0.300001
		CHANNELS 3  Xrotation Yrotation Zrotation
		JOINT left_knee
		{
			OFFSET	-28.2	-396.7	2.2
			CHANNELS 3  Xrotation Yrotation Zrotation
			JOINT left_ankle
			{
				OFFSET	-11.7	-411.3	35.4
				CHANNELS 3  Xrotation Yrotation Zrotation
				JOINT left_toes
				{
					OFFSET	0	-60	-88.6
					CHANNELS 3  Xrotation Yrotation Zrotation
					JOINT left_foot_ee
					{
						OFFSET	-22.5	-16.5	-42.2
						CHANNELS 3  Xrotation Yrotation Zrotation
						End Site
						{
							OFFSET	1	0	0
						}
					}
				}
			}
		}
	}
	JOINT right_hip
	{
		OFFSET	82.8	-127.5	0.300001
		CHANNELS 3  Xrotation Yrotation Zrotation
		JOINT right_knee
		{
			OFFSET	28.2	-396.7	2.2
			CHANNELS 3  Xrotation Yrotation Zrotation
			JOINT right_ankle
			{
				OFFSET	11.7	-411.3	35.4
				CHANNELS 3  Xrotation Yrotation Zrotation
				JOINT right_toes
				{
					OFFSET	0	-60	-88.6
					CHANNELS 3  Xrotation Yrotation Zrotation
					JOINT right_foot_ee
					{
						OFFSET	22.5	-16.5	-42.2
						CHANNELS 3  Xrotation Yrotation Zrotation
						End Site
						{
							OFFSET	1	0	0
						}
					}
				}
			}
		}
	}
}
MOTION
Frames: 6
Frame Time: 0.02
504.417498968 736.26 -1107.66568264 177.285020693 -9.36400645578 179.888746454 -1.39707 0.171891 0.583498 -1.39689 0.134414 0.593253 -1.3953 -0.00808664 0.608235 -1.39581 0.0880725 0.60188 -6.53893 14.8457 2.97931 -6.49753 25.4073 5.91499 -0.0 0.0 -0.0 -0.971943 17.6795 0.582536 5.08911 -8.14 72.489 1.20437 -30.8195 0.331969 -7.48153 -0.322889 0.899607 -0.266661 3.98012 -0.090452 -0.0 0.0 -0.0 6.80868 12.017 -12.8885 -19.0036 36.6247 -62.4079 0.670046 18.3622 -0.108298 -14.1265 0.706068 -1.65795 1.18207 -29.3494 -18.0493 0.0 0.0 0.0 1.45716 -1.47962 7.64923 -19.8948 0.296876 3.02327 22.6999 14.7508 -3.08872 4.49685 -0.0 -0.0 -0.0 0.0 -0.0 17.14 12.3599 2.57676 -47.1251 0.98111 -6.96534 15.3886 -9.73383 2.1451 17.2637 -0.0 -0.0 0.0 0.0 0.0 
503.432620477 736.26 -1106.52887972 177.289402384 -8.78502249367 179.916527755 -1.39707 0.171891 0.583498 -1.39689 0.134414 0.593253 -1.3953 -0.00808664 0.608235 -1.39581 0.0880725 0.60188 -6.53893 14.8457 2.97931 -6.49753 25.4073 5.91499 -0.0 0.0 -0.0 -0.971943 17.6795 0.582536 5.08911 -8.14 72.489 1.20437 -30.8195 0.331969 -7.48153 -0.322889 0.899607 -0.266661 3.98012 -0.090452 -0.0 0.0 -0.0 6.80868 12.017 -12.8885 -19.0036 36.6247 -62.4079 0.670046 18.3622 -0.108298 -14.1265 0.706068 -1.65795 1.18207 -29.3494 -18.0493 0.0 0.0 0.0 1.45716 -1.47962 7.64923 -19.8948 0.296876 3.02327 22.6999 14.7508 -3.08872 4.49685 -0.0 -0.0 -0.0 0.0 -0.0 17.14 12.3599 2.57676 -47.1251 0.98111 -6.96534 15.3886 -9.73383 2.1451 17.2637 -0.0 -0.0 0.0 0.0 0.0 
502.843193923 736.26 -1105.85950525 177.291863411 -8.44169620603 179.932960175 -1.39707 0.171891 0.583498 -1.39689 0.134414 0.593253 -1.3953 -0.00808664 0.608235 -1.39581 0.0880725 0.60188 -6.53893 14.8457 2.97931 -6.49753 25.4073 5.91499 -0.0 0.0 -0.0 -0.971943 17.6795 0.582536 5.08911 -8.14 72.489 1.20437 -30.8195 0.331969 -7.48153 -0.322889 0.899607 -0.266661 3.98012 -0.090452 -0.0 0.0 -0.0 6.80868 12.017 -12.8885 -19.0036 36.6247 -62.4079 0.670046 18.3622 -0.108298 -14.1265 0.706068 -1.65795 1.18207 -29.3494 -18.0493 0.0 0.0 0.0 1.45716 -1.47962 7.64923 -19.8948 0.296876 3.02327 22.6999 14.7508 -3.08872 4.49685 -0.0 -0.0 -0.0 0.0 -0.0 17.14 12.3599 2.57676 -47.1251 0.98111 -6.96534 15.3886 -9.73383 2.1451 17.2637 -0.0 -0.0 0.0 0.0 0.0 
481.440937902 741.15 -1112.05184175 -178.642881045 -16.4928118788 -176.743584108 -0.420073 0.442134 2.21689 -0.417389 0.300208 2.24051 -0.403782 -0.193298 2.25225 -0.410823 0.164736 2.25452 -1.85883 8.32349 -7.13703 -1.38919 20.6593 -6.52978 -0.0 0.0 -0.0 0.272219 22.3187 2.97052 -2.04047 -35.3884 52.2252 1.37717 -34.3003 0.425011 -1.79797 -0.06681 0.219868 -0.633052 -1.3608 -4.82127 -0.0 0.0 -0.0 9.25268 11.0486 -18.1833 -27.5062 51.4941 -62.4086 0.461202 12.8694 -0.0520154 -54.3061 4.58434 -4.88895 -3.88964 -20.5725 14.8951 0.0 0.0 0.0 7.11908 18.5278 -2.21413 -17.2795 0.318104 2.62259 -22.997 1.76462 3.4843 20.9441 -0.0 -0.0 -0.0 0.0 -0.0 34.8592 11.8549 -7.0092 -45.7805 0.874851 -6.78776 -14.5119 -28.3925 -2.30912 40.1898 -0.0 -0.0 0.0 0.0 0.0 
491.926565899 743.0 -1110.4093419 -178.57373976 -19.794637879 -175.981709863 -0.504868 0.421148 2.1672 -0.5023 0.282424 2.18959 -0.489671 -0.202909 2.19838 -0.496385 0.146744 2.20284 -2.36139 7.97734 -11.2728 -1.56287 23.268 -10.9293 -0.0 0.0 -0.0 0.155603 22.1018 2.78419 -0.933392 -35.1308 51.9751 1.59294 -38.274 0.552789 -1.94742 -0.0726741 0.23805 -0.939145 3.75 -4.62982 -0.0 0.0 -0.0 9.38657 13.9582 -18.3803 -27.4837 48.6631 -63.8454 0.557721 15.4445 -0.075628 -52.4707 4.36401 -4.80584 -4.17855 -19.8967 17.1155 0.0 0.0 0.0 4.92652 16.101 -1.38882 -14.5866 0.320834 2.20946 -22.5086 3.74594 3.39809 14.6737 -0.0 -0.0 -0.0 0.0 -0.0 35.4242 10.6732 -6.81735 -45.7867 0.875332 -6.78859 -9.93516 -19.9354 -1.51006 39.3487 -0.0 -0.0 0.0 0.0 0.0 
509.376876832 741.782 -1103.95123336 -179.047361119 -23.8822380932 -176.031734934 -0.48647 0.276975 2.04863 -0.484147 0.146083 2.06209 -0.477394 -0.307725 2.04424 -0.483225 0.0189138 2.06717 -3.2569 9.09539 -10.4008 -2.55508 24.5675 -9.62297 -0.0 0.0 -0.0 -0.309777 22.3317 2.15659 -1.35087 -36.5326 51.249 1.74781 -40.8829 0.651489 -3.18169 -0.122913 0.387611 -1.40086 6.8883 -6.26164 -0.0 0.0 -0.0 9.76176 16.4582 -19.0935 -26.1956 43.7287 -66.6445 0.524938 14.5765 -0.0671371 -49.1245 3.96954 -4.63633 -4.74576 -25.2029 17.0278 0.0 0.0 0.0 4.00579 14.2015 -1.37484 -17.1671 0.318606 2.60535 -16.1421 4.65593 2.42793 9.20016 -0.0 -0.0 -0.0 0.0 -0.0 36.4998 15.0883 -9.14901 -46.9837 0.969737 -6.94678 -0.659869 -17.8803 -0.0980434 38.0001 -0.0 -0.0 0.0 0.0 0.0 
